
<svg xmlns="http://www.w3.org/2000/svg" version="1.1" xmlns:xlink="http://www.w3.org/1999/xlink" preserveAspectRatio="none" x="0px" y="0px" width="1202px" height="1074px" viewBox="0 0 1202 1074">
<defs>
<g id="Layer3_0_FILL">
<path fill="#000000" stroke="none" d="
M 1091.25 159.6
Q 1087.55 157.4 1082.65 157.65
L 841.45 157.65
Q 829.65 157.4 819.8 157.65 810 158.15 809.25 164.3 809.5 170.2 812.45 172.4 815.4 174.6 819.35 176.55 823.25 178.55 826.2 183.7 829.4 189.1 829.4 200.9
L 829.9 471.85
Q 829.65 483.65 824.25 488.05 818.85 492.5 813.45 495.2 808.25 497.65 807.8 504.05 808 507.75 811.95 508.95 815.65 510.2 820.3 510.2 825 510.2 827.45 510.2
L 1086.85 510.2
Q 1091.25 510.2 1093.2 507.5 1095.45 504.8 1095.45 499.65
L 1095.45 460.3
Q 1095.7 452.9 1094.2 448 1092.75 442.85 1086.35 442.6 1080.45 443.1 1078.95 447.25 1077.25 451.45 1073.3 455.85 1069.6 460.05 1057.55 460.3
L 902.45 460.3
Q 895.3 460.55 891.35 458.55 887.45 456.6 887.45 448.25
L 887.45 368.1
Q 886.95 361.95 890.65 359 894.3 356.05 901.45 356.05
L 1001.25 356.05
Q 1008.4 356.3 1012.35 360 1016 363.65 1018.5 367.1 1020.95 370.8 1023.9 371.05 1029.05 371.3 1031.75 367.35 1034.45 363.4 1034.45 353.1
L 1034.45 312.3
Q 1034.7 303.7 1033 298.5 1031.5 293.35 1024.85 293.1 1021.65 293.35 1019.2 296.55 1017 300 1013.05 303.2 1009.4 306.4 1001.25 306.65
L 898.5 306.65
Q 891.85 306.9 889.4 303.7 886.7 300.75 886.95 292.6
L 886.95 217.65
Q 886.95 212.2 889.4 210 891.85 207.55 896.55 207.55
L 1053.65 207.55
Q 1066.9 207.8 1072.05 211.75 1077 215.9 1079.2 219.85 1081.15 223.8 1085.85 224 1092.75 223.55 1094.2 217.65 1095.7 211.5 1095.45 206.55
L 1095.45 168.7
Q 1095.2 161.8 1091.25 159.6
M 791.3 183.7
Q 786.15 184.45 780.25 180.25 766.75 169.2 742.15 160.35 717.8 151.5 676 151 618.75 151.5 577.9 175.85 537.1 199.95 515.2 240.75 493.35 281.3 493.1 331.95 493.35 369.8 506.35 403.25 519.4 436.7 543.25 462.5 567.1 488.3 599.8 502.8 632.5 517.6 671.85 517.8 706.5 517.6 729.35 510.95 752.25 504.55 766.25 495.7 780.25 487.1 788.6 480.45 797.2 474.8 801.9 473.8 806.8 472.85 809.75 473.1 812.45 473.3 814.9 471.1 818.1 467.65 817.85 464.45 817.65 461.5 814.9 458.3
L 778.55 416.05
Q 775.6 412.35 771.65 411.85 767.95 411.6 764.5 415.05 761.55 418.25 762.3 421.2 763.05 424.4 762.55 428.6 761.8 433 754.95 440.4 746.8 449.45 727.4 457.1 708 464.95 671.85 465.45 638.15 464.95 611.1 446.75 584.3 428.8 568.6 398.6 552.85 368.35 552.6 331.95 552.85 294.35 568.6 265.1 584.3 236.05 611.85 219.35 639.65 202.65 676 202.4 705.75 202.4 724.2 207.8 742.9 213.2 754.95 224 759.85 228.7 761.55 232.85 763.05 236.8 764.05 240 765 243.2 767.45 244.65 773.15 247.6 776.8 245.15 780.5 242.7 783.7 237.05
L 804.85 204.35
Q 809 198.2 811 192.3 812.95 186.4 808.8 182.7 805.35 180.25 800.9 181.75 796.5 182.95 791.3 183.7
M 498.8 159.1
Q 495.35 157.65 491.15 157.65 487 157.65 485 157.65
L 429.7 157.65
Q 425.05 157.4 419.85 158.6 414.7 159.85 414.2 165.25 414.45 169.45 417.9 171.9 421.35 174.35 425.05 179.75 428.5 185.2 428.7 197.95
L 428.7 466.95
Q 428.5 478.75 424.05 484.65 419.6 490.55 415.2 493.75 411 497.15 410.55 501.1 410.75 507.25 415.45 508.95 420.1 510.45 428.25 510.2
L 485 510.2
Q 487 510.2 491.15 509.95 495.6 509.7 499.3 508 502.95 506.5 503.2 503.05 502.7 497.9 498.3 494.7 493.85 491.5 489.45 485.6 484.8 479.95 484.55 466.95
L 484.55 197.95
Q 484.8 184.95 489.2 179.3 493.65 173.85 498.05 171.4 502.25 168.95 502.7 165.25 502.5 160.85 498.8 159.1
M 425.75 331.45
Q 425.5 280.55 404.85 241.5 384.2 202.65 346.6 180.25 308.95 158.15 257.6 157.65
L 117.95 157.65
Q 109.55 157.4 102.7 158.15 95.8 159.1 95.3 165.25 95.8 170.9 100.25 173.4 104.65 176.1 109.1 181.5 113.75 187.15 114 201.9
L 114 467.4
Q 113.75 479.95 108.85 484.65 104.15 489.3 99.5 491.5 94.8 493.95 94.35 500.1 94.8 506.75 101.7 508.5 108.6 510.45 116.45 510.2
L 258.05 510.2
Q 309.7 509.7 347.05 486.1 384.7 462.25 405.1 422.2 425.5 381.85 425.75 331.45
M 349.3 258.95
Q 364.5 285.5 364.75 330.5 364.3 395.9 331.85 427.35 299.35 458.55 241.35 458.3
L 181.85 458.3
Q 174.7 458.55 172.25 455.85 169.55 453.15 169.8 444.8
L 169.8 220.6
Q 169.8 215.65 172.75 212.7 175.95 210 181.85 210
L 241.35 209.5
Q 278.7 209 306.25 220.6 334.05 232.15 349.3 258.95
M 850 588.3
Q 852.9 585.35 858.5 585.35
L 1046.35 585.35
Q 1062.25 585.65 1068.4 590.35 1074.3 595.35 1076.95 600.05 1079.3 604.8 1084.85 605.05 1093.1 604.5 1094.85 597.45 1096.6 590.1 1096.35 584.2
L 1096.35 538.95
Q 1096.05 530.7 1091.35 528.05 1086.9 525.4 1081.05 525.7
L 792.65 525.7
Q 778.55 525.4 766.8 525.7 755.05 526.3 754.15 533.65 754.45 540.7 757.95 543.35 761.5 546 766.2 548.35 770.9 550.7 774.45 556.85 778.25 563.35 778.25 577.45
L 778.85 901.4
Q 778.55 915.5 772.1 920.8 765.6 926.1 759.15 929.3 752.95 932.25 752.4 939.9 752.7 944.3 757.4 945.8 761.8 947.25 767.4 947.25 772.95 947.25 775.9 947.25
L 1086.05 947.25
Q 1091.35 947.25 1093.7 944 1096.35 940.8 1096.35 934.6
L 1096.35 887.55
Q 1096.6 878.75 1094.85 872.9 1093.1 866.7 1085.45 866.4 1078.4 867 1076.65 872 1074.6 877 1069.85 882.3 1065.45 887.3 1051.05 887.55
L 865.55 887.55
Q 857.05 887.85 852.35 885.5 847.65 883.15 847.65 873.15
L 847.65 777.35
Q 847.05 770 851.45 766.45 855.85 762.95 864.4 762.95
L 983.75 762.95
Q 992.25 763.2 996.95 767.65 1001.4 772.05 1004.3 776.15 1007.25 780.55 1010.8 780.85 1016.95 781.15 1020.2 776.45 1023.45 771.75 1023.45 759.4
L 1023.45 710.6
Q 1023.7 700.3 1021.65 694.15 1019.9 687.95 1011.95 687.65 1008.15 687.95 1005.2 691.8 1002.55 695.9 997.85 699.75 993.45 703.55 983.75 703.85
L 860.85 703.85
Q 852.9 704.15 850 700.3 846.75 696.8 847.05 687.1
L 847.05 597.45
Q 847.05 590.95 850 588.3
M 661.6 527.45
Q 657.5 525.7 652.5 525.7 647.5 525.7 645.15 525.7
L 579 525.7
Q 573.45 525.4 567.25 526.85 561.1 528.35 560.5 534.8 560.8 539.8 564.9 542.75 569 545.7 573.45 552.15 577.55 558.6 577.85 573.9
L 577.85 895.5
Q 577.55 909.6 572.25 916.7 566.95 923.75 561.65 927.55 556.65 931.65 556.1 936.35 556.4 943.7 561.95 945.8 567.55 947.55 577.25 947.25
L 645.15 947.25
Q 647.5 947.25 652.5 946.95 657.8 946.65 662.2 944.6 666.6 942.85 666.9 938.7 666.3 932.55 661.05 928.75 655.75 924.9 650.45 917.85 644.85 911.1 644.55 895.5
L 644.55 573.9
Q 644.85 558.35 650.15 551.55 655.45 545.1 660.75 542.15 665.75 539.2 666.3 534.8 666.05 529.5 661.6 527.45
M 102.5 526.3
Q 94.25 527.45 93.65 534.8 94.25 541.55 99.55 544.5 104.85 547.75 110.1 554.2 115.7 560.95 116 578.6
L 116 896.1
Q 115.7 911.1 109.85 916.7 104.25 922.25 98.65 924.9 93.05 927.85 92.5 935.2 93.05 943.15 101.3 945.2 109.55 947.55 118.95 947.25
L 288.25 947.25
Q 350 946.65 394.7 918.45 439.65 889.95 464.05 842 488.45 793.8 488.75 733.55 488.45 672.7 463.75 625.95 439.1 579.5 394.1 552.75 349.1 526.3 287.7 525.7
L 120.7 525.7
Q 110.7 525.4 102.5 526.3
M 186.25 591.55
Q 190.1 588.3 197.15 588.3
L 268.3 587.75
Q 312.95 587.15 345.9 600.95 379.1 614.75 397.35 646.8 415.55 678.55 415.85 732.35 415.25 810.55 376.45 848.2 337.65 885.5 268.3 885.2
L 197.15 885.2
Q 188.6 885.5 185.65 882.3 182.45 879.05 182.75 869.05
L 182.75 600.95
Q 182.75 595.05 186.25 591.55 Z"/>
</g>

<g id="Layer2_0_FILL">
<path fill="#DE9821" stroke="none" d="
M 1432.8 867.6
L 1432.8 852.95 1074.6 852.95 1074.6 867.6
Q 1076.6 867.65 1077.6 867.3 1078.65 866.85 1078.9 865.15 1079.3 862.9 1079.75 861.55 1080.15 860.35 1081.9 859.75 1083.7 859.25 1087.95 859.1 1092.2 859 1100.1 859
L 1407.3 859
Q 1415.2 859 1419.45 859.1 1423.7 859.25 1425.45 859.75 1427.2 860.35 1427.65 861.55 1428.1 862.9 1428.45 865.15 1428.75 866.85 1429.8 867.3 1430.8 867.65 1432.8 867.6
M 1428.5 836.85
Q 1428.1 839.1 1427.65 840.45 1427.25 841.65 1425.5 842.25 1423.7 842.75 1419.45 842.9 1415.2 843 1407.3 843
L 1100.1 843
Q 1092.2 843 1087.95 842.9 1083.7 842.75 1081.95 842.25 1080.2 841.65 1079.75 840.45 1079.3 839.1 1078.95 836.85 1078.65 835.15 1077.6 834.7 1076.6 834.35 1074.6 834.4
L 1074.6 849.05 1432.8 849.05 1432.8 834.4
Q 1430.8 834.35 1429.8 834.7 1428.75 835.15 1428.5 836.85 Z"/>
</g>

<g id="Layer1_0_MEMBER_0_FILL">
<path fill="#990000" stroke="none" d="
M 970.15 502.3
L 967.45 504.65 942.35 513.3 941.15 511.55 937.65 534.8 937.05 535.25 937.05 541.5 935.5 540.9 933.8 544 937.05 546.4 937.05 547.75 938.75 548.2 938.95 547.85 958.35 562.65 958.9 565.55 961.3 564.6 964.7 567.15 964.85 567 963.9 563.6 979.8 557.4 980.65 557.45 986.2 554.4 987.45 557.75 988.9 557.6 989.6 553.15 990.85 553.05 990.4 552.1 992.1 551.2 991.7 549.55 990.15 549.6 993.85 525.45 996.4 524.55 994.25 522.8 994.45 521.55 993.2 521.9 973.05 505.5 971.35 505.25 970.15 502.3 Z"/>
</g>

<g id="Layer1_0_MEMBER_1_FILL">
<path fill="#535353" fill-opacity="0.23921568627450981" stroke="none" d="
M 972.1 508.15
L 978.6 527.95 991.7 523.2 972.4 507.55 971.7 507.4 972.1 508.15
M 958.75 556.7
L 958 553.3 956.5 553 942.05 547.45 959.85 560.8 959.1 558.2 959.05 557.1 958.75 556.7 Z"/>

<path fill="#000000" fill-opacity="0.18823529411764706" stroke="none" d="
M 992.1 525.6
L 980.6 528.9 988.4 549.5 992.1 525.6
M 960.6 551.9
L 969.1 552.25 987.45 551.15 985 545.75 985 544.9 978.95 530.35 978.75 530.95 960.6 551.9
M 959.5 553.75
L 959.85 554.5 961.35 561.15 961.55 562.6 980.25 555.25 980.9 555.3 984.25 553.55 959.5 553.75 Z"/>

<path fill="#FFFFFF" fill-opacity="0.1568627450980392" stroke="none" d="
M 947.45 527.8
L 945.4 530.4 939.1 544.1 955.05 551.1 955.95 551.1 956.9 551.9 957.25 551.35 947.45 527.8
M 949.5 523.7
L 949.7 524.45 978 528.55 978 527.45 969.45 506.45 949.5 523.7
M 949.5 525.95
L 948.75 525.6 958.15 549.95 977.5 529.9 949.5 525.95
M 939.45 537.05
L 939.45 539.65 946.85 525.4 942.45 519.1 939.85 536.7 939.45 537.05
M 966.4 507.05
L 965.95 507.05 965.8 507.4 943.55 515.95 947.6 523.55 966.4 507.05 Z"/>
</g>

<g id="Layer0_0_FILL">
<path fill="#FFFFFF" stroke="none" d="
M 686.35 480.6
Q 678.45 475.45 674.6 475.45 668.8 475.45 654.6 485.3 650.95 479.65 644 475.45
L 622.85 486.25
Q 627.65 489.25 630.1 493.3 632.45 497.3 632.45 504.45
L 632.45 553.2 657.8 553.2 657.8 499
Q 665.9 493.1 669.15 493.1 670.75 493.1 672.75 496.35 674.8 499.55 675 502.95
L 695.55 492.05
Q 694.25 485.85 686.35 480.6
M 601.8 482.35
Q 589.95 475.45 584.3 475.45 578.75 475.45 566.95 482.35 555.1 489.25 552.35 492.6 548.35 497.7 548.35 515.1 548.35 532.45 552.35 537.7 555.1 541.05 566.95 547.95 578.75 554.9 584.3 554.9 589.95 554.9 601.8 547.95 613.6 541.05 616.25 537.7 620.3 532.45 620.3 515.1 620.3 497.7 616.25 492.6 613.6 489.25 601.8 482.35
M 579.6 493.8
Q 582.6 491.65 584.3 491.65 586.1 491.65 589.1 493.8 592 495.9 593.4 497.55 595.85 500.8 595.85 515.2 595.85 529.6 593.4 532.75 592 534.45 589.1 536.5 586.1 538.65 584.3 538.65 582.6 538.65 579.6 536.5 576.7 534.45 575.3 532.75 572.85 529.5 572.85 515.1 572.85 500.65 575.3 497.55 576.7 495.9 579.6 493.8 Z"/>
</g>
</defs>

<g transform="matrix( 1, 0, 0, 1, 0,0) ">
<use xlink:href="#Layer3_0_FILL"/>
</g>

<g transform="matrix( 3.356781005859375, 0, 0, 3.356781005859375, -3607.2,-2339.5) ">
<use xlink:href="#Layer2_0_FILL"/>
</g>

<g transform="matrix( 3.356781005859375, 0, 0, 3.356781005859375, -2622.7,-1277.1) ">
<use xlink:href="#Layer1_0_MEMBER_0_FILL"/>
</g>

<g transform="matrix( 3.356781005859375, 0, 0, 3.356781005859375, -2622.7,-1277.1) ">
<use xlink:href="#Layer1_0_MEMBER_1_FILL"/>
</g>

<g transform="matrix( 1, 0, 0, 1, 0,0) ">
<use xlink:href="#Layer0_0_FILL"/>
</g>
</svg>
